<svg width="190" height="46" viewBox="0 0 190 46" fill="none" xmlns="http://www.w3.org/2000/svg">
<path d="M2.4375 17.25L24 5.75L45.5625 17.25L24 28.75L2.4375 17.25Z" stroke="#FF6636" stroke-width="3.45" stroke-linecap="round" stroke-linejoin="round"/>
<path d="M34.7812 43.125V23L24 17.25" stroke="#FF6636" stroke-width="3.45" stroke-linecap="round" stroke-linejoin="round"/>
<path d="M40.5313 19.9332V29.7299C40.5319 30.04 40.4316 30.3419 40.2456 30.5901C39.0351 32.2009 33.9283 38.0936 24 38.0936C14.0717 38.0936 8.96486 32.2009 7.75437 30.5901C7.5684 30.3419 7.46816 30.04 7.46875 29.7299V19.9332" stroke="#FF6636" stroke-width="3.45" stroke-linecap="round" stroke-linejoin="round"/>
<path d="M62.2767 36H57.1017L66.5238 9.23636H72.509L81.9443 36H76.7693L69.621 14.725H69.4119L62.2767 36ZM62.4465 25.5063H76.5602V29.4006H62.4465V25.5063ZM84.1563 36V15.9273H88.7433V19.2727H88.9523C89.3183 18.114 89.9455 17.221 90.8342 16.5938C91.7315 15.9578 92.7552 15.6398 93.9052 15.6398C94.1665 15.6398 94.4584 15.6528 94.7808 15.679C95.1118 15.6964 95.3862 15.7269 95.604 15.7705V20.1222C95.4037 20.0525 95.0857 19.9915 94.6501 19.9392C94.2232 19.8782 93.8093 19.8477 93.4086 19.8477C92.5461 19.8477 91.7707 20.035 91.0825 20.4097C90.4029 20.7756 89.8671 21.2852 89.4751 21.9386C89.083 22.592 88.887 23.3456 88.887 24.1994V36H84.1563ZM108.744 15.9273V19.5864H97.2052V15.9273H108.744ZM100.054 11.1182H104.785V29.9625C104.785 30.5985 104.881 31.0864 105.072 31.4261C105.273 31.7572 105.534 31.9837 105.856 32.1057C106.179 32.2277 106.536 32.2886 106.928 32.2886C107.224 32.2886 107.494 32.2669 107.738 32.2233C107.991 32.1797 108.182 32.1405 108.313 32.1057L109.11 35.804C108.858 35.8911 108.496 35.9869 108.026 36.0915C107.564 36.196 106.998 36.257 106.327 36.2744C105.142 36.3093 104.075 36.1307 103.125 35.7386C102.175 35.3379 101.422 34.7193 100.864 33.883C100.315 33.0466 100.045 32.0011 100.054 30.7466V11.1182ZM111.597 36V15.9273H116.327V36H111.597ZM113.975 13.0784C113.226 13.0784 112.581 12.8301 112.041 12.3335C111.501 11.8282 111.231 11.2227 111.231 10.517C111.231 9.80265 111.501 9.19716 112.041 8.70057C112.581 8.19526 113.226 7.94261 113.975 7.94261C114.733 7.94261 115.378 8.19526 115.909 8.70057C116.449 9.19716 116.719 9.80265 116.719 10.517C116.719 11.2227 116.449 11.8282 115.909 12.3335C115.378 12.8301 114.733 13.0784 113.975 13.0784ZM128.844 36.392C126.84 36.392 125.119 35.9521 123.682 35.0722C122.253 34.1922 121.151 32.9769 120.376 31.4261C119.609 29.8667 119.226 28.072 119.226 26.042C119.226 24.0034 119.618 22.2044 120.402 20.6449C121.186 19.0767 122.292 17.857 123.721 16.9858C125.159 16.1059 126.857 15.6659 128.818 15.6659C130.447 15.6659 131.889 15.9665 133.143 16.5676C134.406 17.16 135.413 18.0008 136.162 19.0898C136.911 20.1701 137.338 21.4333 137.443 22.8795H132.921C132.738 21.9125 132.302 21.1066 131.614 20.4619C130.935 19.8085 130.024 19.4818 128.883 19.4818C127.916 19.4818 127.066 19.7432 126.335 20.2659C125.603 20.7799 125.032 21.5205 124.623 22.4875C124.222 23.4545 124.022 24.6133 124.022 25.9636C124.022 27.3314 124.222 28.5076 124.623 29.492C125.023 30.4678 125.585 31.2214 126.309 31.7528C127.04 32.2756 127.898 32.5369 128.883 32.5369C129.58 32.5369 130.203 32.4062 130.752 32.1449C131.309 31.8748 131.775 31.4871 132.15 30.9818C132.525 30.4765 132.782 29.8623 132.921 29.1392H137.443C137.329 30.5593 136.911 31.8182 136.188 32.9159C135.465 34.0049 134.48 34.8587 133.235 35.4773C131.989 36.0871 130.525 36.392 128.844 36.392ZM153.017 27.558V15.9273H157.748V36H153.161V32.4324H152.952C152.499 33.5562 151.754 34.4754 150.717 35.1898C149.689 35.9042 148.421 36.2614 146.914 36.2614C145.599 36.2614 144.435 35.9695 143.425 35.3858C142.423 34.7934 141.639 33.9352 141.073 32.8114C140.506 31.6788 140.223 30.311 140.223 28.708V15.9273H144.954V27.9761C144.954 29.2481 145.302 30.2587 145.999 31.008C146.696 31.7572 147.611 32.1318 148.744 32.1318C149.441 32.1318 150.116 31.9619 150.769 31.6222C151.423 31.2824 151.958 30.7771 152.377 30.1063C152.803 29.4267 153.017 28.5773 153.017 27.558ZM166.239 9.23636V36H161.508V9.23636H166.239ZM175.776 36.4051C174.504 36.4051 173.358 36.1786 172.339 35.7256C171.328 35.2638 170.527 34.5843 169.934 33.6869C169.35 32.7896 169.059 31.6831 169.059 30.3676C169.059 29.235 169.268 28.2985 169.686 27.558C170.104 26.8174 170.675 26.225 171.398 25.7807C172.121 25.3364 172.935 25.0009 173.842 24.7744C174.756 24.5392 175.702 24.3693 176.677 24.2648C177.853 24.1428 178.807 24.0339 179.539 23.9381C180.271 23.8335 180.803 23.6767 181.134 23.4676C181.473 23.2498 181.643 22.9144 181.643 22.4614V22.383C181.643 21.3985 181.351 20.6362 180.768 20.096C180.184 19.5559 179.343 19.2858 178.246 19.2858C177.087 19.2858 176.168 19.5384 175.488 20.0438C174.817 20.5491 174.364 21.1458 174.129 21.8341L169.712 21.2068C170.06 19.9871 170.635 18.9678 171.437 18.1489C172.239 17.3212 173.219 16.7027 174.377 16.2932C175.536 15.875 176.817 15.6659 178.219 15.6659C179.186 15.6659 180.149 15.7792 181.107 16.0057C182.066 16.2322 182.941 16.6068 183.734 17.1295C184.527 17.6436 185.163 18.3449 185.642 19.2335C186.13 20.1222 186.374 21.233 186.374 22.5659V36H181.826V33.2426H181.669C181.382 33.8002 180.977 34.3229 180.454 34.8108C179.94 35.29 179.291 35.6777 178.507 35.9739C177.732 36.2614 176.821 36.4051 175.776 36.4051ZM177.004 32.929C177.954 32.929 178.777 32.7417 179.474 32.367C180.171 31.9837 180.707 31.4784 181.081 30.8511C181.465 30.2239 181.656 29.54 181.656 28.7994V26.4341C181.508 26.5561 181.256 26.6693 180.898 26.7739C180.55 26.8784 180.158 26.9699 179.722 27.0483C179.287 27.1267 178.855 27.1964 178.428 27.2574C178.002 27.3184 177.631 27.3706 177.318 27.4142C176.612 27.51 175.98 27.6669 175.423 27.8847C174.865 28.1025 174.425 28.4074 174.103 28.7994C173.781 29.1828 173.619 29.6794 173.619 30.2892C173.619 31.1604 173.937 31.8182 174.573 32.2625C175.209 32.7068 176.02 32.929 177.004 32.929Z" fill="white"/>
</svg>
