<svg width="64" height="64" viewBox="0 0 64 64" fill="none" xmlns="http://www.w3.org/2000/svg">
<rect width="64" height="64" fill="white"/>
<path opacity="0.2" d="M21.2793 21.3733C21.1302 21.3298 20.9731 21.3216 20.8204 21.3494C20.6676 21.3772 20.5235 21.4401 20.3993 21.5333C20.2751 21.6264 20.1743 21.7472 20.1048 21.886C20.0354 22.0249 19.9993 22.178 19.9993 22.3333V39.6666C19.9993 39.8218 20.0354 39.9749 20.1048 40.1138C20.1743 40.2527 20.2751 40.3734 20.3993 40.4666C20.5235 40.5597 20.6676 40.6227 20.8204 40.6505C20.9731 40.6782 21.1302 40.6701 21.2793 40.6266L33 37.208V24.7918L21.2793 21.3733Z" fill="#564FFD"/>
<path d="M19.9993 22.3333V39.6666C19.9993 39.8218 20.0354 39.9749 20.1048 40.1138C20.1743 40.2527 20.2751 40.3734 20.3993 40.4666C20.5235 40.5597 20.6676 40.6227 20.8204 40.6505C20.9731 40.6782 21.1302 40.6701 21.2793 40.6266L43.2793 34.2099C43.487 34.1493 43.6694 34.023 43.7993 33.8499C43.9291 33.6768 43.9993 33.4663 43.9993 33.2499V28.7499C43.9993 28.5335 43.9291 28.323 43.7993 28.1499C43.6694 27.9768 43.487 27.8505 43.2793 27.7899L21.2793 21.3733C21.1302 21.3298 20.9731 21.3216 20.8204 21.3494C20.6676 21.3772 20.5235 21.4401 20.3993 21.5333C20.2751 21.6264 20.1743 21.7472 20.1048 21.886C20.0354 22.0249 19.9993 22.178 19.9993 22.3333V22.3333Z" stroke="#564FFD" stroke-width="2" stroke-linecap="round" stroke-linejoin="round"/>
<path d="M39 35.4582V40.0001C39 40.2653 38.8946 40.5197 38.7071 40.7072C38.5196 40.8948 38.2652 41.0001 38 41.0001H34C33.7348 41.0001 33.4804 40.8948 33.2929 40.7072C33.1054 40.5197 33 40.2653 33 40.0001V24.792" stroke="#564FFD" stroke-width="2" stroke-linecap="round" stroke-linejoin="round"/>
</svg>
